<svg width="192" height="192" viewBox="0 0 192 192" fill="none" xmlns="http://www.w3.org/2000/svg">
  <rect width="192" height="192" rx="32" fill="#059669"/>
  <path d="M96 48C78.3 48 64 62.3 64 80C64 97.7 78.3 112 96 112C113.7 112 128 97.7 128 80C128 62.3 113.7 48 96 48ZM96 104C82.8 104 72 93.2 72 80C72 66.8 82.8 56 96 56C109.2 56 120 66.8 120 80C120 93.2 109.2 104 96 104Z" fill="white"/>
  <path d="M144 120H48V128L56 144H136L144 128V120Z" fill="white"/>
  <path d="M76 134C76 137.3 73.3 140 70 140C66.7 140 64 137.3 64 134C64 130.7 66.7 128 70 128C73.3 128 76 130.7 76 134Z" fill="#059669"/>
  <path d="M128 134C128 137.3 125.3 140 122 140C118.7 140 116 137.3 116 134C116 130.7 118.7 128 122 128C125.3 128 128 130.7 128 134Z" fill="#059669"/>
</svg>
