<svg width="512" height="512" viewBox="0 0 512 512" fill="none" xmlns="http://www.w3.org/2000/svg">
  <rect width="512" height="512" rx="85" fill="#059669"/>
  <path d="M256 128C209.1 128 171 166.1 171 213C171 259.9 209.1 298 256 298C302.9 298 341 259.9 341 213C341 166.1 302.9 128 256 128ZM256 277C221.1 277 192 247.9 192 213C192 178.1 221.1 149 256 149C290.9 149 320 178.1 320 213C320 247.9 290.9 277 256 277Z" fill="white"/>
  <path d="M384 320H128V341L149 384H363L384 341V320Z" fill="white"/>
  <path d="M203 357C203 368.1 194.1 377 183 377C171.9 377 163 368.1 163 357C163 345.9 171.9 337 183 337C194.1 337 203 345.9 203 357Z" fill="#059669"/>
  <path d="M341 357C341 368.1 332.1 377 321 377C309.9 377 301 368.1 301 357C301 345.9 309.9 337 321 337C332.1 337 341 345.9 341 357Z" fill="#059669"/>
</svg>
