<svg width="192" height="192" viewBox="0 0 192 192" fill="none" xmlns="http://www.w3.org/2000/svg">
  <rect width="192" height="192" rx="48" fill="#4e2430"/>
  <path d="M96 48C68.4 48 48 68.4 48 96C48 123.6 68.4 144 96 144C123.6 144 144 123.6 144 96C144 68.4 123.6 48 96 48ZM96 72C109.2 72 120 82.8 120 96C120 109.2 109.2 120 96 120C82.8 120 72 109.2 72 96C72 82.8 82.8 72 96 72Z" fill="white"/>
  <rect x="88" y="64" width="16" height="64" rx="8" fill="#597b6f"/>
  <rect x="64" y="88" width="64" height="16" rx="8" fill="#597b6f"/>
</svg>
