<svg width="512" height="512" viewBox="0 0 512 512" fill="none" xmlns="http://www.w3.org/2000/svg">
  <rect width="512" height="512" rx="128" fill="#4e2430"/>
  <path d="M256 128C181.12 128 128 181.12 128 256C128 330.88 181.12 384 256 384C330.88 384 384 330.88 384 256C384 181.12 330.88 128 256 128ZM256 192C291.2 192 320 220.8 320 256C320 291.2 291.2 320 256 320C220.8 320 192 291.2 192 256C192 220.8 220.8 192 256 192Z" fill="white"/>
  <rect x="235" y="171" width="42" height="170" rx="21" fill="#597b6f"/>
  <rect x="171" y="235" width="170" height="42" rx="21" fill="#597b6f"/>
</svg>
